<?xml version="1.0" encoding="utf-8"?>
<!-- Generator: Adobe Illustrator 22.0.1, SVG Export Plug-In . SVG Version: 6.00 Build 0)  -->
<svg version="1.1" id="图层_1" xmlns="http://www.w3.org/2000/svg" xmlns:xlink="http://www.w3.org/1999/xlink" x="0px" y="0px"
	 viewBox="0 0 320.1 65.9" style="enable-background:new 0 0 320.1 65.9;" xml:space="preserve">
<style type="text/css">
	.st0{fill:#FFFFFF;}
</style>
<title>资源 1</title>
<g id="图层_2_1_">
	<g id="图层_1-2">
		<path class="st0" d="M202.2,40.7c-2.3-0.1-4.5,0.9-6,2.8c-0.9-1.7-2.7-2.8-4.6-2.8c-2.1-0.2-4.1,0.7-5.4,2.3l-0.2-2.2h-4v17.7h4.5
			V47.9c0-2.3,1.2-4.2,3.5-4.2s3.1,2.3,3.1,4.2v10.7h4.1V48.1c0-3,1.4-4.4,3.5-4.4c2.4,0,3.1,2.3,3.1,4.2v10.7h4.1V48.2
			C207.8,42.8,205.1,40.8,202.2,40.7z"/>
		<path class="st0" d="M170.6,40.5c1.6,0,3.3,0.4,4.7,1.3c2.9,1.6,4.7,4.7,4.6,8c0,1.6-0.4,3.2-1.2,4.6c-0.8,1.4-2,2.6-3.4,3.4
			c-1.4,0.8-3.1,1.2-4.7,1.2c-2.4,0-4.8-0.9-6.4-2.7c-3.6-3.7-3.6-9.6,0.1-13.2c0.1-0.1,0.2-0.2,0.2-0.2
			C166.2,41.3,168.4,40.5,170.6,40.5L170.6,40.5z M171,43.6c-1.4,0-2.7,0.6-3.5,1.7c-1,1.3-1.5,2.8-1.4,4.4
			c-0.1,1.6,0.4,3.2,1.4,4.5c0.9,1.1,2.2,1.8,3.6,1.7c1.4,0,2.7-0.6,3.6-1.7c1-1.3,1.5-2.9,1.4-4.5c0.1-1.6-0.4-3.2-1.4-4.4
			C173.7,44.2,172.4,43.5,171,43.6L171,43.6z"/>
		<path class="st0" d="M127.6,40.6c-4.2,0-5.6,2.3-5.6,2.3l-0.2-2.1H118v17.7h4.4V47.8c0-2.3,1.3-4.2,3.8-4.2s3.4,2.3,3.4,4.2v10.7
			h4.1V48.1C133.8,42.8,130.8,40.7,127.6,40.6z"/>
		<path class="st0" d="M104.8,58.8c4.2,0,5.6-2.3,5.6-2.3l0.2,2.1h3.8V40.9H110v10.7c0,2.3-1.3,4.2-3.8,4.2s-3.7-2.3-3.7-4.2V40.9
			h-4.4v10.4C98.1,56.7,101.6,58.7,104.8,58.8z"/>
		<path class="st0" d="M161.2,55.1c-0.8,1.1-1.8,2-3,2.7c-1.4,0.8-3.1,1.2-4.7,1.2c-5.1,0-9.2-4.1-9.2-9.2c0-2.6,1.1-5.1,3.1-6.9
			c1.7-1.5,3.9-2.4,6.1-2.4c1.7,0,3.3,0.4,4.7,1.2c1.2,0.6,2.2,1.6,3,2.7l-3.3,2.4c-0.2-0.5-0.5-0.9-0.8-1.3
			c-1.6-1.9-4.4-2.2-6.4-0.6c-0.2,0.2-0.4,0.4-0.6,0.6c-1,1.2-1.5,2.7-1.4,4.3c-0.1,1.6,0.4,3.1,1.4,4.3c1.6,1.9,4.4,2.2,6.4,0.6
			c0.2-0.2,0.4-0.4,0.6-0.6c0.3-0.4,0.6-0.9,0.8-1.3L161.2,55.1z"/>
		<path class="st0" d="M302.2,56.1c-0.8,0-1.5-0.7-1.5-1.5V42.5h-5.3v2.3h1.8v10.7c0,1.6,1.3,2.8,2.8,2.9h20.1v-2.3H302.2z"/>
		<path class="st0" d="M317.8,41h-3.7l4.9-3v-2.6h-16.6v2.3h12.1l-4,2.4c-1-0.7-2.1-1.3-3.2-1.8l-1.3,1.6l1.3,1.1h-4.7v14h1
			c1.2,0,2.2-0.9,2.2-2c0,0,0-0.1,0-0.1V51h3.7v4h1c1.1,0.1,2.1-0.7,2.2-1.8c0-0.1,0-0.2,0-0.3V51h3.7v1c0,0.5-0.5,0.8-0.9,0.8H314
			l0.7,2.3h2.3c1.5,0,2.8-1.3,2.8-2.8c0,0,0,0,0,0V43c0-1.1-0.8-2-1.8-2C317.9,41,317.9,41,317.8,41z M309.5,48.7h-3.7v-1.6h3.7
			V48.7z M309.5,44.9h-3.7v-1.6h3.7V44.9z M316.4,48.7h-3.7v-1.6h3.7V48.7z M316.4,44.9h-3.7v-1.6h3.7V44.9z"/>
		<path class="st0" d="M301.2,39.7c-1.1-1.4-2.3-2.7-3.7-3.8l-1.8,1.3l3.1,4.2L301.2,39.7z"/>
		<path class="st0" d="M278.8,50.9V37.8c0.1-1.1-0.7-2.2-1.8-2.3c-0.1,0-0.1,0-0.2,0h-8.3v2.3h7v3.6h-2.9V39h-3.2v14.5l-1.4,0.4v2.6
			l7.4-2.1v4.7h1.3c1.1,0,1.9-0.8,2-1.9v-3.8l1.6-0.4v-2.6L278.8,50.9z M275.5,51.8l-2.8,0.8V49h2.8V51.8z M275.5,46.7h-2.8v-2.9
			h2.9L275.5,46.7z"/>
		<path class="st0" d="M288.4,48.4l4.7,10.5h-3.4l-3.5-7.8l-2.5,6.3c-0.4,0.9-1.3,1.5-2.3,1.5h-1.8l4.1-10.5h-3.5v-2.3h3.9v-3.6
			h-3.9v-2.3h2.9l-2.4-4l1.9-1.2c1.1,1.2,2.2,2.4,3.1,3.8l-2,1.4h2.4l3.4-5.2l2.5,1.8l-2.7,3.3h2.9v2.3h-4.5v3.6h4.5v2.3L288.4,48.4
			z"/>
		<path class="st0" d="M234.2,38.3h-7.7V35h-4v3.3h-5v2.3h5v9.5h-6.2V38.3h-4v14.2h10.2v6.8h0.6c2.2-0.1,3.3-1.1,3.3-2.8v-4h6.8
			c1.8,0,3.4-1.5,3.4-3.3v-8.5C236.6,39.3,235.5,38.3,234.2,38.3z M232.7,48.6c0,0.8-0.7,1.5-1.5,1.5h-4.7v-9.5h6.2V48.6z"/>
		<path class="st0" d="M261.8,35.4h-16.6v2.3h15.4v17c0,0.8-0.7,1.5-1.5,1.5H244V35.4h-3.7v23.2H261c1.8,0,3.3-1.5,3.3-3.3V37.9
			C264.3,36.5,263.2,35.4,261.8,35.4L261.8,35.4z"/>
		<path class="st0" d="M259.5,51.5v2.3h-14.2v-2.3h5v-3.9h-4.9v-2.3h4.9v-2.9h-4.9V40h14v2.3H254v2.9h5.4v2.3H254v3.9h2.7l-2-2.2
			l1.4-1.4c1,0.7,1.9,1.4,2.8,2.2l-1.2,1.5L259.5,51.5z"/>
		<path class="st0" d="M26.3,42.4l5.3-5.3l-4.2-4.2l4.2-4.2l-5.3-5.3l-4.2,4.2l-2.8-2.8c-4.4-4.4-11.6-4.4-16.1,0s-4.4,11.6,0,16.1
			c4.4,4.4,11.6,4.4,16,0l2.8-2.8L26.3,42.4z M14.1,35.7c-1.5,1.5-4,1.5-5.5,0c-1.5-1.5-1.5-4,0-5.5c1.5-1.5,4-1.5,5.5,0l2.8,2.8
			L14.1,35.7z"/>
		<path class="st0" d="M84,24.9c-4.4-4.4-11.6-4.4-16.1,0l-2.8,2.8L61,23.5l-5.3,5.3l4.3,4.2l-4.2,4.2l5.2,5.3l4.2-4.2L68,41
			c4.7,4.2,11.8,3.8,16-0.9C87.9,35.8,87.9,29.2,84,24.9z M78.7,35.7c-1.5,1.5-4,1.5-5.5,0l-2.8-2.8l2.8-2.8
			c1.6-1.5,4.1-1.4,5.5,0.2C80.1,31.9,80.1,34.2,78.7,35.7z"/>
		<path class="st0" d="M49,32.9l13.6-13.6c4.3-4.6,4.1-11.7-0.4-16.1c-4.4-4.2-11.3-4.2-15.6,0l-2.8,2.8L41,3.3
			c-4.7-4.2-11.8-3.8-16,0.9c-3.9,4.3-3.9,10.9,0,15.2l13.5,13.6L24.9,46.5c-4.1,4.8-3.5,11.9,1.3,16c4.2,3.6,10.5,3.6,14.7,0
			l2.8-2.8l2.8,2.8c4.6,4.2,11.8,3.9,16-0.8c3.9-4.3,3.9-10.9,0-15.2L49,32.9z M30.2,14.1c-1.5-1.5-1.5-4,0-5.5s4-1.5,5.5,0l2.8,2.8
			l-4.2,4.2l5.3,5.3l4.2-4.2l4.2,4.2l5.3-5.3L49,11.4l2.8-2.8c1.5-1.5,4-1.5,5.5,0c1.5,1.5,1.5,4,0,5.5l0,0L43.7,27.7
			C43.7,27.7,31.8,15.7,30.2,14.1z M57.3,57.3c-1.5,1.5-4,1.5-5.5,0c0,0,0,0,0,0L49,54.5l4.2-4.2l-5.3-5.3l-4.2,4.2l-4.2-4.2
			l-5.3,5.3l4.2,4.2l-2.8,2.8c-1.5,1.5-4,1.5-5.5,0c-1.5-1.5-1.5-4,0-5.5l0,0c1.6-1.6,13.5-13.6,13.5-13.6l13.6,13.6
			C58.8,53.3,58.8,55.7,57.3,57.3C57.3,57.3,57.3,57.3,57.3,57.3z"/>
		<path class="st0" d="M176.4,15.2v2c-1.5-1.6-3.5-2.4-5.7-2.5c-2.3-0.1-4.5,0.9-6.1,2.6c-1.6,1.7-2.5,4.1-2.4,6.5
			c-0.1,2.4,0.8,4.8,2.4,6.6c3.1,3.3,8.4,3.5,11.7,0.3c0,0,0,0,0.1-0.1v1.8h4.2V15.2H176.4z M175.3,27.8c-1,1-2.3,1.6-3.7,1.5
			c-1.4,0-2.7-0.5-3.6-1.6c-1-1.1-1.4-2.5-1.4-4c0-1.4,0.5-2.8,1.5-3.9c0.9-1,2.2-1.6,3.6-1.5c1.4-0.1,2.8,0.5,3.7,1.5
			c1,1.1,1.5,2.5,1.4,4C176.8,25.3,176.2,26.7,175.3,27.8z"/>
		<path class="st0" d="M118.4,7.4h4.4v9.8c1.2-1.5,3.1-2.3,5-2.3c3.1,0,6,2.1,6,7.4v10.2h-4V22c0-1.8-0.7-4.1-3.3-4.1
			s-3.7,1.9-3.7,4.1v10.5h-4.4L118.4,7.4z"/>
		<path class="st0" d="M116.9,28.2c-0.9,1.4-2.2,2.5-3.7,3.3c-1.8,1-3.8,1.5-5.9,1.5c-3,0-5.9-1.2-8.1-3.3c-2.2-2.1-3.4-5-3.3-8.1
			c-0.1-3.3,1.3-6.4,3.8-8.5c2.1-1.9,4.8-3,7.6-3c2.1,0,4.1,0.5,5.8,1.6c1.5,0.8,2.7,1.9,3.7,3.3l-3.7,2.7c-0.3-0.6-0.7-1.1-1.1-1.6
			c-2.3-2.6-6.2-2.9-8.8-0.7c-0.2,0.2-0.5,0.4-0.7,0.7c-1.3,1.6-2,3.6-1.9,5.6c-0.1,2.1,0.6,4.1,1.9,5.7c2.2,2.6,6.1,2.9,8.7,0.7
			c0.3-0.2,0.5-0.5,0.7-0.7c0.5-0.5,0.9-1.1,1.1-1.8l3.5,2.5l0,0h0.1l0,0l0,0l0.1,0.1L116.9,28.2z M154.2,14.9
			c-4.1,0-5.5,2.3-5.5,2.3l-0.2-2h-3.7v17.3h4.4V21.9c0-2.2,1.3-4.1,3.8-4.1s3.3,2.3,3.3,4.1v10.5h4.1V22.2
			C160.2,17,157.3,14.9,154.2,14.9z"/>
		<rect x="137.1" y="40.8" class="st0" width="4.2" height="17.7"/>
		<path class="st0" d="M139.1,39c-1.3,0.1-2.3-0.9-2.4-2.2c0,0,0-0.1,0-0.1c0.1-1.4,1.3-2.4,2.6-2.3c1.2,0.1,2.2,1.1,2.3,2.3
			c0,1.3-1,2.3-2.3,2.3C139.3,39,139.2,39,139.1,39L139.1,39z"/>
		<rect x="137.1" y="15.1" class="st0" width="4.1" height="17.4"/>
		<path class="st0" d="M139.1,13.3c-1.3-0.1-2.3-1.2-2.2-2.4c0.1-1.3,1.2-2.3,2.4-2.2c1.2,0.1,2.2,1.1,2.2,2.3c0,1.3-1,2.3-2.2,2.3
			C139.3,13.3,139.2,13.3,139.1,13.3z"/>
	</g>
</g>
</svg>
