<svg xmlns="http://www.w3.org/2000/svg" viewBox="0 0 320.09 65.88"><defs><style>.cls-1,.cls-2{fill-rule:evenodd;}.cls-2,.cls-3{fill:#c6241e;}</style></defs><title>资源 1</title><g id="图层_2" data-name="图层 2"><g id="图层_1-2" data-name="图层 1"><path class="cls-1" d="M202.16,40.72a7.42,7.42,0,0,0-6,2.75,5.15,5.15,0,0,0-4.59-2.75A6.39,6.39,0,0,0,186.16,43L186,40.85h-4v17.7h4.48V47.88c0-2.27,1.2-4.15,3.51-4.15s3.09,2.33,3.09,4.15V58.55h4.07V48.11c0-3,1.39-4.38,3.46-4.38,2.41,0,3.1,2.33,3.1,4.15V58.55h4.06V48.19C207.77,42.83,205.09,40.79,202.16,40.72Z"/><path class="cls-1" d="M170.65,40.46a9.29,9.29,0,0,1,4.67,1.25,9.07,9.07,0,0,1,4.64,8,9.21,9.21,0,0,1-1.23,4.64,8.89,8.89,0,0,1-3.37,3.38,9.23,9.23,0,0,1-4.7,1.22,8.76,8.76,0,0,1-6.45-2.68,9.31,9.31,0,0,1,.35-13.39,8.85,8.85,0,0,1,6.09-2.39Zm.32,3.1a4.38,4.38,0,0,0-3.54,1.72A6.75,6.75,0,0,0,166,49.7a7,7,0,0,0,1.39,4.49A4.4,4.4,0,0,0,171,55.9a4.45,4.45,0,0,0,3.57-1.73,6.82,6.82,0,0,0,1.42-4.47,6.8,6.8,0,0,0-1.4-4.44A4.42,4.42,0,0,0,171,43.56Z"/><path class="cls-1" d="M127.63,40.63c-4.24-.05-5.62,2.29-5.62,2.29l-.22-2.07H118V58.54h4.44V47.82c0-2.28,1.31-4.16,3.83-4.16s3.38,2.32,3.38,4.16V58.54h4.13V48.14C133.75,42.75,130.82,40.67,127.63,40.63Z"/><path class="cls-1" d="M104.77,58.78c4.24,0,5.62-2.3,5.62-2.3l.21,2.07h3.83V40.86H110V51.58c0,2.28-1.31,4.17-3.82,4.17s-3.68-2.34-3.68-4.17V40.86H98.05V51.27C98.05,56.65,101.57,58.74,104.77,58.78Z"/><path class="cls-1" d="M161.21,55.08a9,9,0,0,1-3,2.68A9.53,9.53,0,0,1,153.49,59a9.23,9.23,0,0,1-6.17-16.09,9,9,0,0,1,6.15-2.38,9.53,9.53,0,0,1,4.74,1.24,9,9,0,0,1,3,2.66l-3.31,2.37a5.45,5.45,0,0,0-.81-1.3,4.53,4.53,0,0,0-7,0,6.36,6.36,0,0,0-1.4,4.25,6.53,6.53,0,0,0,1.38,4.32,4.53,4.53,0,0,0,7,0,5.87,5.87,0,0,0,.84-1.35Z"/><path class="cls-1" d="M302.19,56.14a1.52,1.52,0,0,1-1.52-1.52V42.51H295.4v2.34h1.76v10.7A3,3,0,0,0,300,58.48h20.09V56.14Z"/><path class="cls-1" d="M317.81,41h-3.7l4.87-3V35.39H302.42v2.33h12.11l-4,2.4a27.54,27.54,0,0,0-3.21-1.82l-1.26,1.62,1.27,1.1H302.6v14h1a2.12,2.12,0,0,0,2.21-2.11V51h3.69v4h1a2,2,0,0,0,2.21-2.12V51h3.7v1c0,.46-.52.76-.94.76H314l.67,2.34h2.31a2.8,2.8,0,0,0,2.8-2.81v-9.3A1.92,1.92,0,0,0,317.81,41Zm-8.33,7.74h-3.69V47.18h3.69Zm0-3.82h-3.69V43.36h3.69Zm6.89,3.82h-3.7V47.18h3.7Zm0-3.82h-3.7V43.36h3.7Z"/><path class="cls-1" d="M301.2,39.66a18.85,18.85,0,0,0-3.72-3.75l-1.84,1.33,3.08,4.22Z"/><path class="cls-1" d="M278.83,50.91V37.81a2.09,2.09,0,0,0-2-2.34h-8.33v2.34h7v3.63h-2.85V39h-3.16v14.5l-1.39.39v2.63l7.39-2.07v4.74h1.31a2,2,0,0,0,2-1.9V53.54l1.58-.44V50.47Zm-3.34.93-2.84.8V49h2.84Zm0-5.19h-2.84V43.78h2.85Z"/><path class="cls-1" d="M288.37,48.43l4.71,10.5h-3.42l-3.46-7.75-2.5,6.26a2.62,2.62,0,0,1-2.26,1.49h-1.76l4.09-10.5h-3.46V46.09h3.89v-3.6h-3.89V40.15h2.94l-2.41-4L282.72,35a35,35,0,0,1,3.11,3.76l-1.95,1.4h2.39L289.62,35l2.54,1.82-2.68,3.34h2.94v2.34h-4.53v3.6h4.53v2.34Z"/><path class="cls-1" d="M234.19,38.25H226.5V35h-4v3.26h-5v2.34h5v9.55h-6.23V38.25h-4V52.47h10.22v6.75h.65c2.23-.07,3.25-1.06,3.33-2.76v-4h6.77a3.46,3.46,0,0,0,3.45-3.31V40.64A2.54,2.54,0,0,0,234.19,38.25Zm-1.46,10.37a1.52,1.52,0,0,1-1.51,1.52H226.5V40.59h6.23Z"/><path class="cls-1" d="M261.83,35.39H245.24v2.33h15.44v17a1.52,1.52,0,0,1-1.51,1.52H244V35.39h-3.69V58.55H261a3.34,3.34,0,0,0,3.33-3.34V37.92a2.54,2.54,0,0,0-2.54-2.53Z"/><path class="cls-1" d="M259.46,51.55v2.34H245.24V51.55h5V47.63h-4.92V45.29h4.92v-2.9h-4.92V40.05h14v2.34H254v2.9h5.41v2.34H254v3.92h2.7l-2-2.22,1.43-1.42a23.36,23.36,0,0,1,2.77,2.19l-1.16,1.45Z"/><path class="cls-2" d="M26.33,42.38l5.26-5.26-4.18-4.18,4.18-4.18-5.26-5.27-4.18,4.19-2.77-2.77a11.35,11.35,0,1,0,0,16.06l2.77-2.77ZM14.12,35.71a3.91,3.91,0,1,1,0-5.54l2.77,2.77Z"/><path class="cls-2" d="M84,24.91a11.36,11.36,0,0,0-16.06,0l-2.76,2.77L61,23.49l-5.26,5.27L60,32.94l-4.18,4.18L61,42.38l4.19-4.18L68,41A11.36,11.36,0,0,0,84,24.91Zm-5.26,10.8a3.92,3.92,0,0,1-5.54,0l-2.76-2.77,2.76-2.77a3.92,3.92,0,0,1,5.54,5.54Z"/><path class="cls-2" d="M49,32.94,62.56,19.38A11.36,11.36,0,0,0,46.5,3.32L43.74,6.09,41,3.32a11.35,11.35,0,0,0-16,16.06L38.48,32.94,24.92,46.5a11.35,11.35,0,0,0,16,16l2.77-2.76,2.76,2.76a11.35,11.35,0,0,0,16.06-16ZM30.18,14.12a3.91,3.91,0,0,1,5.53-5.54l2.77,2.77-4.19,4.19,5.26,5.26,4.19-4.19,4.18,4.19,5.26-5.26L49,11.35l2.77-2.77a3.91,3.91,0,0,1,5.53,5.54L43.68,27.74S31.78,15.72,30.18,14.12ZM57.3,57.29a3.9,3.9,0,0,1-5.53,0L49,54.53l4.18-4.19-5.26-5.26-4.18,4.19-4.19-4.19-5.26,5.26,4.19,4.19-2.77,2.76a3.91,3.91,0,0,1-5.53-5.53c1.6-1.6,13.5-13.62,13.5-13.62L57.3,51.76A3.9,3.9,0,0,1,57.3,57.29Z"/><path class="cls-1" d="M176.45,15.16v2a7.91,7.91,0,0,0-5.67-2.46,8,8,0,0,0-6.1,2.58,9.06,9.06,0,0,0-2.43,6.45,9.29,9.29,0,0,0,2.43,6.56,8.28,8.28,0,0,0,11.77.27v1.8h4.21V15.16Zm-1.19,12.61a4.9,4.9,0,0,1-3.74,1.51,4.7,4.7,0,0,1-3.61-1.56,5.8,5.8,0,0,1-1.39-4A5.52,5.52,0,0,1,168,19.85a4.72,4.72,0,0,1,3.6-1.55,4.81,4.81,0,0,1,3.71,1.54,5.6,5.6,0,0,1,1.43,4A5.62,5.62,0,0,1,175.26,27.77Z"/><path class="cls-1" d="M118.43,7.38h4.37v9.76a6.34,6.34,0,0,1,5-2.25c3.13,0,6,2.09,6,7.36V32.46h-4V22c0-1.8-.73-4.09-3.31-4.09s-3.73,1.85-3.74,4.09V32.46h-4.37Z"/><path class="cls-1" d="M116.86,28.18a10.9,10.9,0,0,1-3.66,3.32A11.82,11.82,0,0,1,107.31,33a11,11,0,0,1-8.06-3.33,10.94,10.94,0,0,1-3.35-8.07,10.94,10.94,0,0,1,3.78-8.49,11.12,11.12,0,0,1,7.62-3,11.75,11.75,0,0,1,5.85,1.55,11.18,11.18,0,0,1,3.7,3.29l-3.74,2.69A7.16,7.16,0,0,0,112,16a6.26,6.26,0,0,0-9.49,0,8.27,8.27,0,0,0-1.88,5.59,8.41,8.41,0,0,0,1.87,5.69,6.19,6.19,0,0,0,9.46,0,6.87,6.87,0,0,0,1.14-1.77L116.63,28h0l.08,0h0l0,0,.09.07Zm37.33-13.3c-4.15,0-5.51,2.26-5.51,2.26l-.21-2h-3.74V32.45h4.35V21.93c0-2.23,1.28-4.08,3.75-4.08s3.31,2.29,3.31,4.09V32.45h4.05V22.24c0-5.27-2.87-7.32-6-7.36Z"/><rect class="cls-3" x="137.08" y="40.85" width="4.17" height="17.69"/><path class="cls-2" d="M139.14,39a2.3,2.3,0,0,1-2.41-2.33,2.45,2.45,0,0,1,4.89,0A2.31,2.31,0,0,1,139.18,39Z"/><rect class="cls-3" x="137.1" y="15.06" width="4.08" height="17.39"/><path class="cls-2" d="M139.12,13.3a2.32,2.32,0,1,1,2.44-2.3,2.27,2.27,0,0,1-2.44,2.3Z"/></g></g></svg>